<svg xmlns="http://www.w3.org/2000/svg" viewBox="0 0 601 601"><path d="M300.5 38C445.92 38 563 155.08 563 300.5S445.92 563 300.5 563 38 445.92 38 300.5 155.08 38 300.5 38z" fill="#af1e2d"/><path d="M300.5 88A212.5 212.5 0 01513 300.5 212.5 212.5 0 01300.5 513 212.5 212.5 0 0188 300.5 212.5 212.5 0 01300.5 88" fill="#fff"/><path d="M448.28 243.8c-.00029 17.266-4.167 33.265-12.5 47.997s-19.644 25.967-33.93 33.706c-4.4689 2.3798-8.7105 4.3893-12.725 6.0286s-8.1814 2.9043-12.5 3.7943-9.0828 1.5578-14.292 2.0027c-5.2091.44516-11.233.66768-18.072.66757h-78.569v112.51h-58.937v-300h140.63c12.498.0003 22.616.89267 30.354 2.6771 7.7382 1.785 15.776 5.057 24.114 9.8161 14.287 8.3381 25.597 19.651 33.93 33.937s12.5 29.909 12.5 46.866zm-58.937 0c-.00023-9.5184-3.497-17.477-10.49-23.876s-16.145-9.5978-27.452-9.5981h-85.708v67.861h85.708c11.607.00017 20.833-3.1265 27.677-9.3801s10.265-14.589 10.266-25.007z"/><path d="M123.72 159.08l35.355-35.355 318.2 318.2-35.355 35.355-318.2-318.2z" fill="#af1e2d"/></svg>